<mxfile host="app.diagrams.net" modified="2024-01-03T02:27:46.873Z" agent="Mozilla/5.0 (Windows NT 10.0; Win64; x64) AppleWebKit/537.36 (KHTML, like Gecko) Chrome/109.0.0.0 Safari/537.36" etag="wBOeoz-1_7nPPH3OW_8a" version="22.1.16" type="github">
  <diagram name="Page-1" id="e7e014a7-5840-1c2e-5031-d8a46d1fe8dd">
    <mxGraphModel dx="880" dy="484" grid="1" gridSize="10" guides="1" tooltips="1" connect="1" arrows="1" fold="1" page="1" pageScale="1" pageWidth="1169" pageHeight="826" background="none" math="0" shadow="0">
      <root>
        <mxCell id="0" />
        <mxCell id="1" parent="0" />
        <mxCell id="2" value="CALON PMI FORMAL" style="swimlane;whiteSpace=wrap" parent="1" vertex="1">
          <mxGeometry x="164.5" y="128" width="280" height="922" as="geometry" />
        </mxCell>
        <mxCell id="6" value="" style="edgeStyle=elbowEdgeStyle;elbow=horizontal;verticalAlign=bottom;endArrow=open;endSize=8;strokeColor=#0A0000;endFill=1;rounded=0" parent="2" edge="1">
          <mxGeometry x="100" y="40" as="geometry">
            <mxPoint x="131.5" y="122" as="targetPoint" />
            <mxPoint x="130.5" y="70" as="sourcePoint" />
            <Array as="points">
              <mxPoint x="131" y="92" />
            </Array>
          </mxGeometry>
        </mxCell>
        <mxCell id="dRTGYRYK9msKJ1_YzTi0-52" value="" style="edgeStyle=orthogonalEdgeStyle;rounded=0;orthogonalLoop=1;jettySize=auto;html=1;" edge="1" parent="2" source="dRTGYRYK9msKJ1_YzTi0-41" target="dRTGYRYK9msKJ1_YzTi0-47">
          <mxGeometry relative="1" as="geometry" />
        </mxCell>
        <mxCell id="dRTGYRYK9msKJ1_YzTi0-41" value="CALON PMI MEMASUKKAN NOMOR WHATSAPP DAN PASSWORD" style="rounded=1;whiteSpace=wrap;html=1;arcSize=0;" vertex="1" parent="2">
          <mxGeometry x="65.25" y="122" width="130.5" height="78" as="geometry" />
        </mxCell>
        <mxCell id="dRTGYRYK9msKJ1_YzTi0-51" style="edgeStyle=orthogonalEdgeStyle;rounded=0;orthogonalLoop=1;jettySize=auto;html=1;exitX=0.5;exitY=1;exitDx=0;exitDy=0;entryX=0.5;entryY=0;entryDx=0;entryDy=0;" edge="1" parent="2" source="dRTGYRYK9msKJ1_YzTi0-47" target="dRTGYRYK9msKJ1_YzTi0-48">
          <mxGeometry relative="1" as="geometry" />
        </mxCell>
        <mxCell id="dRTGYRYK9msKJ1_YzTi0-47" value="CALON PMI MEMASUKKAN KODE OTP YANG DIKIRIM OLEH SISTEM" style="rounded=1;whiteSpace=wrap;html=1;arcSize=0;" vertex="1" parent="2">
          <mxGeometry x="67.13" y="232" width="130.5" height="78" as="geometry" />
        </mxCell>
        <mxCell id="dRTGYRYK9msKJ1_YzTi0-132" value="" style="edgeStyle=orthogonalEdgeStyle;rounded=0;orthogonalLoop=1;jettySize=auto;html=1;" edge="1" parent="2" source="dRTGYRYK9msKJ1_YzTi0-48" target="dRTGYRYK9msKJ1_YzTi0-55">
          <mxGeometry relative="1" as="geometry" />
        </mxCell>
        <mxCell id="dRTGYRYK9msKJ1_YzTi0-48" value="CALON PMI LOGIN MENGGUNAKAN NOMOR WHATSAPP DAN PASSWORD YANG SUDAH DIBUAT TADI" style="rounded=1;whiteSpace=wrap;html=1;arcSize=0;" vertex="1" parent="2">
          <mxGeometry x="69.75" y="332" width="130.5" height="98" as="geometry" />
        </mxCell>
        <mxCell id="dRTGYRYK9msKJ1_YzTi0-55" value="CALON PMI MEMASUKKAN DATA DIRI SESUAI DATANYA MASING-MASING" style="rounded=1;whiteSpace=wrap;html=1;arcSize=0;" vertex="1" parent="2">
          <mxGeometry x="69.75" y="462" width="130.5" height="68" as="geometry" />
        </mxCell>
        <mxCell id="dRTGYRYK9msKJ1_YzTi0-58" value="CALON PMI MEMASUKKAN DATA SEKOLAH SESUAI DATANYA MASING-MASING" style="rounded=1;whiteSpace=wrap;html=1;arcSize=0;" vertex="1" parent="2">
          <mxGeometry x="70.5" y="552" width="130.5" height="78" as="geometry" />
        </mxCell>
        <mxCell id="dRTGYRYK9msKJ1_YzTi0-57" value="CALON PMI MEMASUKKAN DATA PENGALAMAN SESUAI DATANYA MASING-MASING" style="rounded=1;whiteSpace=wrap;html=1;arcSize=0;" vertex="1" parent="2">
          <mxGeometry x="60" y="652" width="144.75" height="72" as="geometry" />
        </mxCell>
        <mxCell id="dRTGYRYK9msKJ1_YzTi0-56" value="CALON PMI MEMASUKKAN DATA PELATIHAN SESUAI DATANYA MASING-MASING" style="rounded=1;whiteSpace=wrap;html=1;arcSize=0;" vertex="1" parent="2">
          <mxGeometry x="57.379999999999995" y="772" width="150" height="80" as="geometry" />
        </mxCell>
        <mxCell id="dRTGYRYK9msKJ1_YzTi0-63" value="" style="edgeStyle=orthogonalEdgeStyle;rounded=0;orthogonalLoop=1;jettySize=auto;html=1;" edge="1" parent="2" source="dRTGYRYK9msKJ1_YzTi0-57" target="dRTGYRYK9msKJ1_YzTi0-56">
          <mxGeometry relative="1" as="geometry" />
        </mxCell>
        <mxCell id="dRTGYRYK9msKJ1_YzTi0-122" value="START" style="rounded=1;whiteSpace=wrap;html=1;arcSize=50;" vertex="1" parent="2">
          <mxGeometry x="70.5" y="50" width="120" height="42" as="geometry" />
        </mxCell>
        <mxCell id="dRTGYRYK9msKJ1_YzTi0-139" value="" style="endArrow=classic;html=1;rounded=0;" edge="1" parent="2" source="dRTGYRYK9msKJ1_YzTi0-58" target="dRTGYRYK9msKJ1_YzTi0-57">
          <mxGeometry width="50" height="50" relative="1" as="geometry">
            <mxPoint x="265.5" y="572" as="sourcePoint" />
            <mxPoint x="315.5" y="522" as="targetPoint" />
          </mxGeometry>
        </mxCell>
        <mxCell id="3" value="ADMIN CBM / PSN / KTM" style="swimlane;whiteSpace=wrap" parent="1" vertex="1">
          <mxGeometry x="444.5" y="128" width="215.5" height="922" as="geometry" />
        </mxCell>
        <mxCell id="dRTGYRYK9msKJ1_YzTi0-67" value="ADMIN MENGELOLA DATA CALON PMI" style="rounded=1;whiteSpace=wrap;html=1;arcSize=0;" vertex="1" parent="3">
          <mxGeometry x="45.5" y="362" width="120" height="60" as="geometry" />
        </mxCell>
        <mxCell id="dRTGYRYK9msKJ1_YzTi0-124" value="" style="edgeStyle=orthogonalEdgeStyle;rounded=0;orthogonalLoop=1;jettySize=auto;html=1;" edge="1" parent="3" source="dRTGYRYK9msKJ1_YzTi0-72" target="dRTGYRYK9msKJ1_YzTi0-123">
          <mxGeometry relative="1" as="geometry" />
        </mxCell>
        <mxCell id="dRTGYRYK9msKJ1_YzTi0-72" value="MEMVERIFIKASI DATA CALON PMI" style="rounded=1;whiteSpace=wrap;html=1;arcSize=0;" vertex="1" parent="3">
          <mxGeometry x="48.25" y="452" width="114.5" height="68" as="geometry" />
        </mxCell>
        <mxCell id="dRTGYRYK9msKJ1_YzTi0-92" value="" style="endArrow=none;html=1;rounded=0;exitX=0.5;exitY=0;exitDx=0;exitDy=0;entryX=0.5;entryY=1;entryDx=0;entryDy=0;" edge="1" parent="3" source="dRTGYRYK9msKJ1_YzTi0-72" target="dRTGYRYK9msKJ1_YzTi0-67">
          <mxGeometry width="50" height="50" relative="1" as="geometry">
            <mxPoint x="-134.5" y="402" as="sourcePoint" />
            <mxPoint x="21" y="441" as="targetPoint" />
          </mxGeometry>
        </mxCell>
        <mxCell id="dRTGYRYK9msKJ1_YzTi0-126" value="" style="edgeStyle=orthogonalEdgeStyle;rounded=0;orthogonalLoop=1;jettySize=auto;html=1;" edge="1" parent="3" source="dRTGYRYK9msKJ1_YzTi0-123" target="dRTGYRYK9msKJ1_YzTi0-125">
          <mxGeometry relative="1" as="geometry" />
        </mxCell>
        <mxCell id="dRTGYRYK9msKJ1_YzTi0-123" value="TEST MEDICAL" style="rounded=0;whiteSpace=wrap;html=1;" vertex="1" parent="3">
          <mxGeometry x="45.5" y="562" width="120" height="44" as="geometry" />
        </mxCell>
        <mxCell id="dRTGYRYK9msKJ1_YzTi0-125" value="KIRIM BIODATA KE AGENCY" style="whiteSpace=wrap;html=1;rounded=0;" vertex="1" parent="3">
          <mxGeometry x="48.25" y="652" width="120" height="60" as="geometry" />
        </mxCell>
        <mxCell id="dRTGYRYK9msKJ1_YzTi0-135" value="END" style="rounded=1;whiteSpace=wrap;html=1;arcSize=50;" vertex="1" parent="3">
          <mxGeometry x="59.13" y="802" width="92.75" height="38" as="geometry" />
        </mxCell>
        <mxCell id="4" value="AGENCY" style="swimlane;whiteSpace=wrap" parent="1" vertex="1">
          <mxGeometry x="660" y="128" width="180" height="922" as="geometry" />
        </mxCell>
        <mxCell id="dRTGYRYK9msKJ1_YzTi0-129" value="AGENCY MENERIMA BIODATA DARI ADMIN" style="rounded=0;whiteSpace=wrap;html=1;" vertex="1" parent="4">
          <mxGeometry x="40" y="652" width="120" height="60" as="geometry" />
        </mxCell>
        <mxCell id="dRTGYRYK9msKJ1_YzTi0-66" style="edgeStyle=orthogonalEdgeStyle;rounded=0;orthogonalLoop=1;jettySize=auto;html=1;exitX=1;exitY=0.5;exitDx=0;exitDy=0;entryX=0;entryY=0.5;entryDx=0;entryDy=0;" edge="1" parent="1" source="dRTGYRYK9msKJ1_YzTi0-56" target="dRTGYRYK9msKJ1_YzTi0-67">
          <mxGeometry relative="1" as="geometry">
            <mxPoint x="410" y="890" as="sourcePoint" />
            <mxPoint x="690" y="530" as="targetPoint" />
          </mxGeometry>
        </mxCell>
        <mxCell id="dRTGYRYK9msKJ1_YzTi0-130" value="" style="edgeStyle=orthogonalEdgeStyle;rounded=0;orthogonalLoop=1;jettySize=auto;html=1;" edge="1" parent="1" source="dRTGYRYK9msKJ1_YzTi0-125" target="dRTGYRYK9msKJ1_YzTi0-129">
          <mxGeometry relative="1" as="geometry" />
        </mxCell>
        <mxCell id="dRTGYRYK9msKJ1_YzTi0-138" value="" style="endArrow=classic;html=1;rounded=0;exitX=0.5;exitY=1;exitDx=0;exitDy=0;entryX=1;entryY=0.5;entryDx=0;entryDy=0;" edge="1" parent="1" source="dRTGYRYK9msKJ1_YzTi0-129" target="dRTGYRYK9msKJ1_YzTi0-135">
          <mxGeometry width="50" height="50" relative="1" as="geometry">
            <mxPoint x="430" y="880" as="sourcePoint" />
            <mxPoint x="480" y="830" as="targetPoint" />
            <Array as="points">
              <mxPoint x="760" y="949" />
            </Array>
          </mxGeometry>
        </mxCell>
      </root>
    </mxGraphModel>
  </diagram>
</mxfile>
